<svg xmlns="http://www.w3.org/2000/svg" version="1.1" xmlns:xlink="http://www.w3.org/1999/xlink" xmlns:svgjs="http://svgjs.dev/svgjs" width="1440" height="560" preserveAspectRatio="none" viewBox="0 0 1440 560"><g mask="url(&quot;#SvgjsMask1032&quot;)" fill="none"><rect width="1440" height="560" x="0" y="0" fill="rgba(59, 130, 246, 1)"></rect><path d="M0,480.492C92.203,470.199,187.227,462.819,263.374,409.818C338.152,357.77,381.605,274.383,416.835,190.362C451.183,108.444,459.006,22.144,463.128,-66.588C468.154,-174.778,503.094,-293.864,443.534,-384.324C383.073,-476.151,266.176,-527.236,156.358,-532.507C53.572,-537.44,-26.406,-452.385,-120.801,-411.411C-201.15,-376.534,-287.922,-363.092,-357.253,-309.561C-438.313,-246.975,-534.865,-180.352,-551.036,-79.227C-567.223,21.998,-480.636,106.807,-438.798,200.392C-396.555,294.884,-391.33,417.473,-304.085,473.165C-216.855,528.847,-102.848,491.973,0,480.492" fill="#2c79f5"></path><path d="M1440 1088.766C1536.875 1074.988 1609.13 1002.679 1697.527 960.719 1802.315 910.979 1959.007 924.539 2007.737 819.277 2056.404 714.15 1956.464 599.785 1914.626 491.759 1881.942 407.36699999999996 1850.132 324.355 1789.8980000000001 256.812 1730.3020000000001 189.985 1651.391 150.885 1572.638 108.27499999999998 1473.095 54.416 1376.356-58.45600000000002 1268.073-25.52800000000002 1159.532 7.477999999999952 1143.826 156.39999999999998 1088.563 255.478 1045.079 333.437 998.687 406.69399999999996 978.49 493.645 956.764 587.179 942.0260000000001 683.158 967.731 775.678 996.114 877.838 1042.285 982.7570000000001 1130.659 1041.344 1219.404 1100.1770000000001 1334.586 1103.759 1440 1088.766" fill="#4a8bf7"></path></g><defs><mask id="SvgjsMask1032"><rect width="1440" height="560" fill="#ffffff"></rect></mask></defs></svg>